<svg width="68" height="68" viewBox="0 0 68 68" fill="none" xmlns="http://www.w3.org/2000/svg">
<circle cx="34" cy="34" r="34" fill="white"/>
<path d="M16.4193 48.9527C16.4193 48.9662 16.3458 49.8109 15.4232 49.8109H12.5152C12.4951 49.8109 10.8706 49.7771 10.8706 47.5607V45.3983C10.8706 44.8577 11.2583 43.8306 12.7224 43.8306C14.2065 43.8306 16.2388 43.8508 16.2589 43.8508H16.2923V45.2293H13.2639C13.2372 45.2293 12.5152 45.2429 12.5152 46.02V47.7566C12.5152 47.7769 12.5954 48.3445 13.284 48.3445H14.5207C14.5274 48.3445 14.7012 48.3107 14.7012 47.9661C14.7012 47.5201 14.6879 47.1822 14.6879 47.1349C14.6745 47.1011 14.5876 46.8782 14.3402 46.8106L14.3269 46.8038L14.3202 46.7903C14.2734 46.6822 14.2868 46.6281 14.2934 46.6214L14.3001 46.6011H16.2589C16.2723 46.6011 16.426 46.6281 16.4127 46.8984C16.406 47.1417 16.4193 48.9324 16.4193 48.9527Z" fill="#222222"/>
<path d="M58.8639 45.2431H58.8238C58.4829 45.2566 58.0884 45.2566 57.6673 45.2566C56.9854 45.2566 56.4105 45.2431 56.2701 45.2431V49.7976H54.7057V45.2228H51.0155V46.081C51.0155 46.0878 51.0222 46.2972 51.4032 46.2972H52.8004V47.446H51.4166C51.4032 47.446 51.0355 47.4528 51.0355 47.7366C51.0355 47.9798 51.0422 49.7638 51.0422 49.7638V49.7976L49.4712 49.7705V44.5944C49.4712 44.3714 49.5581 43.8511 50.3336 43.8511H57.6138C58.1219 43.8511 58.6701 44.439 58.8706 45.1958L58.8639 45.2431Z" fill="#222222"/>
<path d="M37.217 48.338V49.8043H33.0521C32.7045 49.8043 32.4504 49.7165 32.2967 49.534C32.1095 49.3178 32.1496 49.0543 32.1496 49.0407V44.7566C32.1496 43.9659 32.8649 43.8511 32.8783 43.8511H37.2103L37.1769 45.1755H37.1435C37.1435 45.1755 35.8398 45.1755 34.9173 45.1755C34.3825 45.1755 34.0816 45.1755 34.0282 45.1755H34.0148C33.9212 45.1755 33.8477 45.2025 33.8009 45.2566C33.7206 45.3445 33.7273 45.4661 33.7273 45.4661V45.9256C33.7273 46.2026 34.0081 46.2094 34.0215 46.2094L36.8627 46.2026V47.4595H34.0282C33.6872 47.4798 33.6805 47.7501 33.6805 47.7636V48.0339C33.6805 48.3177 33.9814 48.338 33.9947 48.338H37.217V48.338Z" fill="#222222"/>
<path d="M42.7721 49.7301V49.7976H38.781C38.781 49.7976 38.7542 49.8044 38.7208 49.8044C38.5871 49.8044 38.1392 49.7571 38.1392 49.1489C38.1392 48.4529 38.1191 43.939 38.1191 43.8917V43.8579H39.7503V48.0475C39.7503 48.061 39.7637 48.3651 40.0579 48.3651H41.9966L42.0033 48.3921C42.0033 48.4056 42.2907 49.7301 42.7721 49.7301Z" fill="#222222"/>
<path d="M31.2136 44.797C31.2136 45.6755 31.2003 49.7435 31.2003 49.784V49.8178H29.5691L29.5758 46.1012L27.6437 49.6962C27.637 49.7029 27.5501 49.8448 27.4365 49.8448C27.3696 49.8448 27.3295 49.7908 27.256 49.6826C27.1356 49.4596 25.6716 46.831 25.3507 46.2499V49.784L23.666 49.7975L23.6928 44.6957C23.6928 44.6889 23.7061 43.8442 24.4281 43.8442H25.1568H25.1635C25.217 43.8442 25.4109 43.8645 25.578 44.1618C25.685 44.3375 27.276 46.7972 27.2894 46.8243C27.3228 46.8918 27.383 46.9594 27.4097 46.9594C27.4365 46.9594 27.5167 46.8851 27.5769 46.8243L29.2148 44.1686C29.2214 44.1551 29.3886 43.8578 29.6426 43.851H30.5384C30.5451 43.851 31.2136 43.8848 31.2136 44.797Z" fill="#222222"/>
<path d="M46.8574 43.8579H44.3504C43.9226 43.8579 42.7192 44.162 42.7192 45.527V48.0002C42.7192 48.0205 42.8864 49.8247 44.1699 49.8247C46.2223 49.8247 47.0045 49.7841 47.0178 49.7841C47.0312 49.7841 48.5554 49.5206 48.5554 47.9259V45.554C48.5488 45.5405 48.3816 43.8579 46.8574 43.8579ZM46.1086 48.3989C45.7209 48.3989 44.8986 48.3854 44.8919 48.3854H44.8719C44.8184 48.3854 44.6847 48.3786 44.5644 48.284C44.4039 48.1624 44.3237 47.9529 44.3237 47.6623C44.3237 46.7568 44.3638 45.7905 44.3638 45.777C44.3638 45.777 44.3504 45.5405 44.5042 45.3716C44.6112 45.2499 44.7783 45.1959 44.9989 45.1959L46.3159 45.2026C46.3426 45.2026 46.9443 45.2297 46.9443 45.9054C46.9443 46.6217 46.8975 47.6623 46.8975 47.6758V47.6826V47.6893C46.8975 47.6893 46.9376 47.9596 46.7705 48.1691C46.6368 48.3245 46.4162 48.3989 46.1086 48.3989Z" fill="#222222"/>
<path d="M23.1378 49.7574C23.0509 49.5411 21.032 44.4123 20.8782 44.1217C20.7378 43.8582 20.4504 43.8379 20.3701 43.8379H20.3434H19.4409C18.9395 43.8379 18.8793 44.1487 18.8726 44.196L16.7534 49.8317L18.5116 49.8114L18.9127 48.5613C19.1267 48.5613 20.7111 48.5681 20.925 48.5681C21.1322 49.2033 21.2927 49.7709 21.2927 49.7776L21.2994 49.8047H23.1512L23.1378 49.7574ZM19.3072 47.2774L19.9022 45.5475L20.4637 47.2774H19.3072Z" fill="#222222"/>
<path d="M40.8741 40.9453C40.8072 40.9453 40.7671 40.9453 40.7671 40.9453C40.7671 40.9453 40.8072 40.9522 40.8741 40.9453Z" fill="#060101"/>
<path d="M51.7641 26.694C51.7641 26.694 51.8376 24.3086 51.5702 22.7815C51.256 20.9773 50.3401 19.4028 50.0125 18.9838C49.7184 18.6054 49.0432 17.4769 46.8972 16.7606C45.2126 16.1998 43.1802 16.1998 41.4956 16.139C39.8109 16.0781 32.6176 16.0376 32.6176 16.0376C32.6176 16.0376 27.5234 16.0714 25.4109 16.1795C22.0683 16.3417 21.2327 16.416 19.7218 17.0647C18.2109 17.7134 17.1747 19.2406 16.8471 20.4907C16.5129 21.7341 16.6265 23.8424 16.6265 23.8424L16.6934 32.6811C16.6934 32.6811 16.6399 34.0596 16.8137 35.4854C17.0544 37.3302 17.3686 38.1478 17.6895 38.6411C17.9435 39.033 18.4984 39.8236 19.5212 40.3169C20.2633 40.6751 22.4828 40.7291 23.5658 40.7359C25.3775 40.8102 30.358 40.9994 31.6683 41.0062C34.0215 41.0129 36.1741 40.9791 37.9323 40.9386C39.0287 40.9386 40.5329 40.9386 41.5089 40.9251C41.2282 40.9386 41.0009 40.9454 40.8805 40.9454C41.2282 40.9454 42.3647 40.9318 43.0867 40.8643C43.9424 40.7832 45.1457 40.3372 45.7808 39.8304C46.4159 39.3236 47.0109 38.6411 47.6527 37.418C48.1006 36.553 48.2476 34.1407 48.2476 34.1407L48.2677 30.5998C48.2677 30.5998 48.2276 28.7212 48.0137 27.7752C47.7997 26.8359 47.4321 26.0588 46.563 25.106C45.7942 24.2546 44.651 23.8762 43.6549 23.7005C42.6588 23.5248 39.6839 23.5586 39.6839 23.5586L32.3034 23.5113L27.2427 23.6126C27.2427 23.6126 26.0193 23.5991 25.09 23.7072C24.1608 23.8086 23.8065 24.1465 23.5591 24.3357C23.3118 24.5249 22.8438 24.9236 22.6566 25.579C22.456 26.2818 22.5028 27.9576 22.5028 27.9576C22.5028 27.9576 22.5831 30.816 22.5964 31.2282C22.6098 31.6404 22.8438 31.5931 22.8438 31.5931C22.8438 31.5931 24.475 31.7891 24.5485 31.7823C24.6221 31.7756 24.5753 31.8431 24.602 31.7756C24.602 31.7688 24.6087 31.7553 24.6154 31.7485C24.6221 31.7485 24.6287 31.7485 24.6287 31.7485C24.6287 31.7485 24.9964 30.762 26.1329 30.6944C27.2694 30.6268 39.7775 30.4308 40.8003 30.4106C41.8231 30.3903 42.0571 30.7079 42.1708 30.9512C42.2844 31.2012 42.3245 32.0324 42.3245 32.0324L42.3045 33.5528C42.3045 33.5528 42.1507 34.4177 41.7229 34.7556C41.3686 35.0326 41.3686 35.134 40.5931 35.161C39.8176 35.1881 25.431 35.0326 25.431 35.0326C25.431 35.0326 23.7864 35.0867 23.0978 34.2015C22.4093 33.3095 21.7608 32.7824 21.734 30.4106C21.7274 28.7753 21.7474 24.9101 21.7474 24.9101C21.7474 24.9101 21.6739 23.1329 22.8906 21.9706C23.9001 20.9975 26.1196 21.1259 26.1196 21.1259C26.1196 21.1259 31.4142 21.1259 33.2393 21.0786C35.0644 21.0313 44.1763 21.3016 44.6443 21.3219C45.1056 21.3489 46.1151 21.3962 47.3451 22.7004C47.773 23.1666 48.4749 24.356 48.6354 25.4439C48.7958 26.5318 49.0098 30.4173 49.0098 30.4173C49.0098 30.4173 49.0098 30.4308 49.0098 30.4646C49.0165 30.9174 49.0833 34.5664 48.7357 35.9449C48.3613 37.418 47.9401 38.6073 46.8839 39.6615C46.6432 39.9047 46.4159 40.148 46.4159 40.148C46.4159 40.148 46.4159 40.1547 46.4092 40.1615C46.3892 40.202 46.349 40.3169 46.4092 40.371C46.4092 40.371 46.4159 40.3777 46.4226 40.3777C46.5496 40.6818 47.1312 40.8913 47.178 40.9048C47.2382 40.9251 47.8198 40.8305 48.2343 40.5669C49.919 39.452 50.3334 38.8776 50.9284 37.391C51.7908 35.553 51.8176 33.2487 51.8176 32.9176C51.7975 32.5797 51.7641 26.694 51.7641 26.694Z" fill="#222222"/>
</svg>
