<svg width="65" height="13" viewBox="0 0 65 13" fill="none" xmlns="http://www.w3.org/2000/svg">
<path d="M6.5 0L7.95934 4.49139H12.6819L8.86126 7.26722L10.3206 11.7586L6.5 8.98278L2.6794 11.7586L4.13874 7.26722L0.318133 4.49139H5.04066L6.5 0Z" fill="#00875F"/>
<path d="M19.5 0L20.9593 4.49139H25.6819L21.8613 7.26722L23.3206 11.7586L19.5 8.98278L15.6794 11.7586L17.1387 7.26722L13.3181 4.49139H18.0407L19.5 0Z" fill="#00875F"/>
<path d="M32.5 0L33.9593 4.49139H38.6819L34.8613 7.26722L36.3206 11.7586L32.5 8.98278L28.6794 11.7586L30.1387 7.26722L26.3181 4.49139H31.0407L32.5 0Z" fill="#00875F"/>
<path d="M45.5 0L46.9593 4.49139H51.6819L47.8613 7.26722L49.3206 11.7586L45.5 8.98278L41.6794 11.7586L43.1387 7.26722L39.3181 4.49139H44.0407L45.5 0Z" fill="#00875F"/>
<path d="M58.5 0L59.9593 4.49139H64.6819L60.8613 7.26722L62.3206 11.7586L58.5 8.98278L54.6794 11.7586L56.1387 7.26722L52.3181 4.49139H57.0407L58.5 0Z" fill="#00875F"/>
</svg>
