<svg width="18" height="18" viewBox="0 0 18 18" fill="none" xmlns="http://www.w3.org/2000/svg">
<path d="M9 1.5C4.86 1.5 1.5 4.86 1.5 9C1.5 13.14 4.86 16.5 9 16.5C13.14 16.5 16.5 13.14 16.5 9C16.5 4.86 13.14 1.5 9 1.5ZM3 9C3 8.5425 3.06 8.0925 3.1575 7.665L6.7425 11.25V12C6.7425 12.825 7.4175 13.5 8.2425 13.5V14.9475C5.295 14.5725 3 12.0525 3 9ZM13.4175 13.05C13.2225 12.4425 12.6675 12 11.9925 12H11.2425V9.75C11.2425 9.3375 10.905 9 10.4925 9H5.9925V7.5H7.4925C7.905 7.5 8.2425 7.1625 8.2425 6.75V5.25H9.7425C10.5675 5.25 11.2425 4.575 11.2425 3.75V3.4425C13.44 4.3275 15 6.4875 15 9C15 10.56 14.3925 11.985 13.4175 13.05Z" fill="#4E4E4E"/>
</svg>
