<svg width="32" height="32" viewBox="0 0 32 32" fill="none" xmlns="http://www.w3.org/2000/svg">
<path d="M26.2205 14.0807L21.8851 11.5767L17.4467 16.0151L21.8848 20.4531L26.2352 17.9408C26.9136 17.5287 27.3184 16.8087 27.3184 16.0151C27.3184 15.2215 26.9133 14.5015 26.2205 14.0807V14.0807Z" fill="#FFCE00"/>
<path d="M17.4467 16.0151L5.35743 3.83875C4.93695 4.25923 4.68159 4.82978 4.68159 5.4605V26.5325C4.68159 27.1632 4.93695 27.7338 5.35743 28.1546L17.4467 16.0151Z" fill="url(#paint0_linear_7_134)"/>
<path d="M17.4467 16.015L21.8851 11.5766L21.8922 11.5696L15.9453 8.1456L8.10592 3.53824C7.4 3.10272 6.544 3.08768 5.82304 3.49312C5.65792 3.59808 5.50752 3.70336 5.35744 3.8384L17.4467 16.015Z" fill="#00F076"/>
<path d="M5.35744 28.1543C5.50752 28.2893 5.65792 28.3946 5.82304 28.4996C6.18336 28.6948 6.55904 28.8 6.9344 28.8C7.33984 28.8 7.73024 28.68 8.09088 28.4698L15.945 23.8845L21.8918 20.4605L21.8848 20.4535L17.4467 16.0151L5.35744 28.1543Z" fill="#F63448"/>
<defs>
<linearGradient id="paint0_linear_7_134" x1="-0.721285" y1="22.0755" x2="11.4365" y2="9.91747" gradientUnits="userSpaceOnUse">
<stop stop-color="#00E2FF"/>
<stop offset="1" stop-color="#00C5FF"/>
</linearGradient>
</defs>
</svg>
